<svg width="24" height="27" viewBox="0 0 24 27" fill="none" xmlns="http://www.w3.org/2000/svg">
<mask id="mask0_319_203" style="mask-type:alpha" maskUnits="userSpaceOnUse" x="0" y="0" width="24" height="27">
<path d="M20.6757 11.2899L24 14.7098L12 26.9474L0 14.7098L3.32432 11.2899L9.85135 17.9237L9.48649 14.339V0H14.5541V14.339L14.1892 17.9237L20.6757 11.2899Z" fill="black"/>
</mask>
<g mask="url(#mask0_319_203)">
<path d="M12.8421 0L23.9637 6.42105V19.2632L12.8421 25.6842L1.72052 19.2632V6.42105L12.8421 0Z" fill="#082535"/>
<circle cx="11.1578" cy="17.4737" r="20" fill="#082535"/>
<path d="M-4.4895 8.73321C-10.142 5.0474 -8.92008 -3.5609 -2.46518 -5.52813V-5.52813C-1.03826 -5.963 0.482228 -5.98756 1.92245 -5.59901L8.4858 -3.82827C17.0026 -1.53051 23.3121 5.64873 24.4972 14.3901L25.4777 21.6224C25.7912 23.9345 24.9935 26.2588 23.3262 27.8912V27.8912V27.8912C21.7024 29.4811 19.3196 30.0171 17.1713 29.2757L11.6596 27.3736C7.45581 25.9228 4.15224 22.6202 2.70032 18.4168L1.82452 15.8813C0.948676 13.3457 -0.746542 11.1739 -2.99363 9.70861L-4.4895 8.73321Z" fill="#266344"/>
<path d="M20.8376 10.6772C22.9247 9.47216 25.4963 9.47216 27.5834 10.6772V10.6772C29.6706 11.8822 30.9564 14.1092 30.9564 16.5193V16.5193C30.9564 18.9294 29.6706 21.1564 27.5834 22.3614V22.3614C25.4963 23.5664 22.9247 23.5664 20.8376 22.3614V22.3614C18.7504 21.1564 17.4646 18.9294 17.4646 16.5193V16.5193C17.4646 14.1092 18.7504 11.8822 20.8376 10.6772V10.6772Z" fill="#823F2F"/>
<path d="M-17.1226 9.70177C-11.0867 6.21694 -3.65018 6.21694 2.38572 9.70177V9.70177C8.42163 13.1866 12.1399 19.6268 12.1399 26.5965V26.5965C12.1399 33.5662 8.42163 40.0064 2.38572 43.4912V43.4912C-3.65019 46.9761 -11.0867 46.9761 -17.1226 43.4912V43.4912C-23.1585 40.0064 -26.8768 33.5662 -26.8768 26.5965V26.5965C-26.8768 19.6268 -23.1585 13.1866 -17.1226 9.70177V9.70177Z" fill="#67414C"/>
</g>
</svg>
