<svg width="61" height="61" viewBox="0 0 61 61" fill="none" xmlns="http://www.w3.org/2000/svg">
<path d="M30.5 0L56.9138 15.25V45.75L30.5 61L4.08623 45.75V15.25L30.5 0Z" fill="#67414C"/>
<mask id="mask0_318_183" style="mask-type:alpha" maskUnits="userSpaceOnUse" x="4" y="0" width="53" height="61">
<path d="M30.5 0L56.9138 15.25V45.75L30.5 61L4.08623 45.75V15.25L30.5 0Z" fill="#082535"/>
</mask>
<g mask="url(#mask0_318_183)">
<circle cx="26.5" cy="41.5" r="47.5" fill="#082535"/>
<path d="M12.4624 9.70749C-2.38729 3.67942 -3.44424 -16.9432 10.7113 -24.4579V-24.4579C13.8405 -26.119 17.374 -26.8661 20.9079 -26.6137L37.0122 -25.4634C57.9095 -23.9707 75.8759 -10.0967 82.6045 9.74403L88.1715 26.1596C89.9513 31.4076 89.1462 37.1881 86 41.75V41.75V41.75C82.9357 46.1933 77.6239 48.5239 72.2793 47.7702L58.5672 45.8364C48.1088 44.3615 38.909 38.1609 33.6171 29.0204L30.425 23.5069C27.2328 17.993 22.2955 13.6992 16.3922 11.3028L12.4624 9.70749Z" fill="#266344"/>
<path d="M49.4893 -2.375C54.4463 -5.23696 60.5537 -5.23696 65.5107 -2.375V-2.375C70.4678 0.48696 73.5215 5.77608 73.5215 11.5V11.5C73.5215 17.2239 70.4678 22.513 65.5107 25.375V25.375C60.5537 28.237 54.4463 28.237 49.4893 25.375V25.375C44.5322 22.513 41.4785 17.2239 41.4785 11.5V11.5C41.4785 5.77608 44.5322 0.48696 49.4893 -2.375V-2.375Z" fill="#823F2F"/>
<path d="M-40.6662 12.375C-26.3309 4.09852 -8.6691 4.09852 5.66618 12.375V12.375C20.0015 20.6515 28.8324 35.947 28.8324 52.5V52.5C28.8324 69.053 20.0015 84.3485 5.66618 92.625V92.625C-8.6691 100.901 -26.3309 100.901 -40.6662 92.625V92.625C-55.0015 84.3485 -63.8324 69.053 -63.8324 52.5V52.5C-63.8324 35.947 -55.0015 20.6515 -40.6662 12.375V12.375Z" fill="#67414C"/>
<path d="M29.6572 20.1902L29.8229 19.776L31.5063 19.7908L31.816 21.0933L24.5065 38.566L22.3478 37.6629L29.6572 20.1902Z" fill="white"/>
<path d="M31.5266 19.7982L29.8572 19.7982L30.0547 22.3431L36.8413 38.566L39.0001 37.6629L31.5266 19.7982Z" fill="white"/>
<rect width="2" height="10" transform="matrix(-4.37114e-08 1 1 4.37114e-08 26 31)" fill="white"/>
</g>
</svg>
