<svg width="64" height="53" viewBox="0 0 64 53" fill="none" xmlns="http://www.w3.org/2000/svg">
<mask id="mask0_261_943" style="mask-type:alpha" maskUnits="userSpaceOnUse" x="8" y="9" width="53" height="38">
<path fill-rule="evenodd" clip-rule="evenodd" d="M54.144 46.0006L39.4717 9H45.4652L60.1375 46.0006H54.144Z" fill="#266344"/>
<path fill-rule="evenodd" clip-rule="evenodd" d="M39.6351 37.6437H52.2319V32.0723H37.4258L39.6351 37.6437Z" fill="#266344"/>
<path fill-rule="evenodd" clip-rule="evenodd" d="M8.9447 32.0718H8.66016V32.7893L8.9447 32.0718ZM10.8623 37.6432L13.0716 32.0718H29.553V37.6432H10.8623Z" fill="#823F2F"/>
<path fill-rule="evenodd" clip-rule="evenodd" d="M31.4661 46.0007L16.7939 9.00049H22.7874L37.4596 46.0007H31.4661Z" fill="#823F2F"/>
</mask>
<g mask="url(#mask0_261_943)">
<path d="M52.7631 109.077C96.0012 109.077 131.053 70.7585 131.053 23.4903C131.053 -23.7778 96.0012 -62.0962 52.7631 -62.0962C9.52503 -62.0962 -25.5264 -23.7778 -25.5264 23.4903C-25.5264 70.7585 9.52503 109.077 52.7631 109.077Z" fill="#082535"/>
<path d="M-42.7343 -72.3689C-73.7362 -92.0425 -67.2013 -143.174 -31.9082 -157.078C-24.1064 -160.152 -15.7851 -160.843 -7.8956 -159.072L28.0575 -151.003C74.7111 -140.533 109.371 -100.523 116.012 -49.4731L121.507 -7.23602C123.263 6.26705 118.939 20.2411 109.843 30.4528C100.984 40.3992 87.9517 44.4117 76.1808 40.8178L45.9815 31.5971C22.948 24.5644 4.80895 6.30287 -3.21217 -17.9283L-8.05059 -32.5444C-12.8891 -47.1615 -22.2056 -59.3413 -34.53 -67.1623L-42.7343 -72.3689Z" fill="#266344"/>
<path d="M-34.0264 25.0558C-19.7777 15.93 -2.22253 15.93 12.0262 25.0558C26.275 34.1815 35.0525 51.0466 35.0525 69.2982C35.0525 87.5497 26.275 104.415 12.0262 113.541C-2.22253 122.666 -19.7777 122.666 -34.0264 113.541C-48.2752 104.415 -57.0527 87.5497 -57.0527 69.2982C-57.0527 51.0466 -48.2752 34.1815 -34.0264 25.0558Z" fill="#67414C"/>
<path d="M43.9084 -23.2258C51.4398 -27.8479 60.719 -27.8479 68.2504 -23.2258C75.7819 -18.6037 80.4215 -10.0616 80.4215 -0.817408C80.4215 8.4268 75.7819 16.9688 68.2504 21.591C60.719 26.2132 51.4398 26.2132 43.9084 21.591C36.3769 16.9688 31.7373 8.4268 31.7373 -0.817408C31.7373 -10.0616 36.3769 -18.6037 43.9084 -23.2258Z" fill="#823F2F"/>
</g>
</svg>
