<svg width="61" height="61" viewBox="0 0 61 61" fill="none" xmlns="http://www.w3.org/2000/svg">
<mask id="mask0_195_453" style="mask-type:alpha" maskUnits="userSpaceOnUse" x="4" y="1" width="53" height="59">
<path d="M25.5 2.88675C28.594 1.10042 32.4059 1.10042 35.5 2.88675L51.9137 12.3632C55.0078 14.1496 56.9137 17.4508 56.9137 21.0235V39.9765C56.9137 43.5492 55.0078 46.8504 51.9137 48.6368L35.5 58.1132C32.4059 59.8996 28.594 59.8996 25.5 58.1132L9.08618 48.6368C5.99217 46.8504 4.08618 43.5492 4.08618 39.9765V21.0235C4.08618 17.4508 5.99217 14.1496 9.08618 12.3632L25.5 2.88675Z" fill="#082535"/>
</mask>
<g mask="url(#mask0_195_453)">
<path d="M26.5 89C52.7335 89 74 67.7335 74 41.5C74 15.2665 52.7335 -6 26.5 -6C0.266474 -6 -21 15.2665 -21 41.5C-21 67.7335 0.266474 89 26.5 89Z" fill="#082535"/>
<path d="M12.4623 9.70755C-2.38739 3.67948 -3.44434 -16.9431 10.7112 -24.4578C13.8404 -26.1189 17.3739 -26.866 20.9078 -26.6136L37.0121 -25.4633C57.9094 -23.9706 75.8758 -10.0966 82.6044 9.74409L88.1714 26.1597C89.9512 31.4077 89.1461 37.1882 85.9999 41.7501C82.9356 46.1934 77.6238 48.524 72.2792 47.7703L58.5671 45.8365C48.1087 44.3616 38.9089 38.161 33.617 29.0205L30.4249 23.507C27.2327 17.9931 22.2954 13.6993 16.3921 11.3029L12.4623 9.70755Z" fill="#266344"/>
<path d="M49.4891 -2.37501C54.4461 -5.23697 60.5535 -5.23697 65.5105 -2.37501C70.4676 0.486946 73.5213 5.77606 73.5213 11.5C73.5213 17.2239 70.4676 22.513 65.5105 25.375C60.5535 28.237 54.4461 28.237 49.4891 25.375C44.532 22.513 41.4783 17.2239 41.4783 11.5C41.4783 5.77606 44.532 0.486946 49.4891 -2.37501Z" fill="#823F2F"/>
<path d="M-40.6663 12.3748C-26.331 4.09836 -8.66922 4.09836 5.66606 12.3748C20.0014 20.6513 28.8323 35.9468 28.8323 52.4998C28.8323 69.0528 20.0014 84.3483 5.66606 92.6248C-8.66922 100.901 -26.331 100.901 -40.6663 92.6248C-55.0016 84.3483 -63.8325 69.0528 -63.8325 52.4998C-63.8325 35.9468 -55.0016 20.6513 -40.6663 12.3748Z" fill="#67414C"/>
<path d="M29.6571 20.1901L29.8228 19.7759L31.5062 19.7907L31.8159 21.0932L24.5064 38.5659L22.3477 37.6628L29.6571 20.1901Z" fill="white"/>
<path d="M31.5266 19.7983H29.8572L30.0547 22.3432L36.8413 38.5661L39.0001 37.663L31.5266 19.7983Z" fill="white"/>
<path d="M26 33L26 31L36 31L36 33L26 33Z" fill="white"/>
</g>
</svg>
